<?xml version="1.0" encoding="UTF-8"?>
<svg id="Capa_2" data-name="Capa 2" xmlns="http://www.w3.org/2000/svg" viewBox="0 0 1199.09 1244.75">
  <defs>
    <style>
      .cls-1 {
        fill: none;
        stroke: #754c24;
        stroke-miterlimit: 10;
      }

      .cls-2 {
        fill: #fcf7e3;
        stroke-width: 0px;
      }
    </style>
  </defs>
  <g id="Capa_1-2" data-name="Capa 1">
    <path class="cls-2" d="M981.83,261.66s-1.84-225.77-151.56-202.08c-149.72,23.7-297.71,293.98-366.54,320.62-68.82,26.64-356.26,155.36-429.66,234.64-73.4,79.28-23.95,177.28,107.06,267.92,131.01,90.64,34.08,225.41,204.41,343.71,57.13,39.68,176.52,28.06,348.24-170.74s278.24-188.9,337.74-214.17c59.5-25.28,153.96-43.04,137.68-218.52-16.28-175.47-165.61-268.63-187.39-361.38Z"/>
    <path class="cls-1" d="M1009.34,204.32s-1.84-225.77-151.56-202.08c-149.72,23.7-297.71,293.98-366.54,320.62-68.82,26.64-356.26,155.36-429.66,234.64-73.4,79.28-23.95,177.28,107.06,267.92,131.01,90.64,34.08,225.41,204.41,343.71,57.13,39.68,176.52,28.06,348.24-170.74,171.71-198.8,278.24-188.9,337.74-214.17,59.5-25.28,153.96-43.04,137.68-218.52-16.28-175.47-165.61-268.63-187.39-361.38Z"/>
  </g>
</svg>