<?xml version="1.0" encoding="UTF-8"?>
<svg id="Capa_2" data-name="Capa 2" xmlns="http://www.w3.org/2000/svg" viewBox="0 0 93.56 118.57">
  <defs>
    <style>
      .cls-1 {
        fill: none;
      }

      .cls-1, .cls-2 {
        stroke-width: 2.59px;
      }

      .cls-1, .cls-2, .cls-3 {
        stroke: #603813;
        stroke-linecap: round;
        stroke-linejoin: round;
      }

      .cls-2 {
        fill: #c69c6d;
      }

      .cls-3 {
        fill: #fcf7e3;
        stroke-width: 2px;
      }
    </style>
  </defs>
  <g id="Capa_1-2" data-name="Capa 1">
    <g>
      <g>
        <path class="cls-2" d="M39.23,101.98c5.08,0,10.16-.16,15.23.06,3.39.15,4.74-.54,5.17-4.92.14-1.39-.26-2.88.09-4.19.54-2.03,2.3-3.07,4.14-3.91,7.56-3.45,14.21-8.01,19.14-14.89,9.81-13.69,11.98-28.4,5.77-44.08C82.1,13.19,69.13,3.91,51.53,1.66,39.44.12,28.1,3.51,18.53,11.28,6.36,21.15.54,34.13,1.38,49.8c.51,9.54,4.02,18.13,10.01,25.59,5.16,6.43,11.6,11.15,19.41,13.98,3.21,1.16,4.63,3.53,4.65,7.1.01,2.25-.71,5.6,3.46,5.51"/>
        <path class="cls-1" d="M38.58,108.46c-1.44.66-2.61,1.54-2.93,3.24-.59,3.17.94,5.37,4.22,5.47,5.07.15,10.16.12,15.23.01,2.91-.06,4.62-1.91,4.54-4.51-.09-2.64-1.89-4.21-4.86-4.21-5.29,0-10.59,0-15.88,0"/>
      </g>
      <path class="cls-3" d="M51.56,42.21c2.51,0,4.7-.02,6.9,0,3.44.05,4.8,2.34,2.96,5.19-5.23,8.13-10.53,16.22-15.8,24.33-.89,1.37-1.99,2.4-3.73,1.6-1.75-.81-1.97-2.34-1.52-4.03.96-3.6,1.94-7.19,2.91-10.78.24-.9.44-1.82.75-3.11-2.54,0-4.82.17-7.06-.07-1.19-.13-2.83-.7-3.31-1.59-.49-.89-.19-2.69.44-3.64,5.15-7.8,10.47-15.5,15.71-23.24.96-1.41,2.08-2.6,3.9-1.77,1.87.84,1.96,2.49,1.45,4.26-1.18,4.18-2.35,8.36-3.61,12.86Z"/>
    </g>
  </g>
</svg>