<?xml version="1.0" encoding="UTF-8"?>
<svg id="Capa_2" data-name="Capa 2" xmlns="http://www.w3.org/2000/svg" viewBox="0 0 92.13 71.9">
  <defs>
    <style>
      .cls-1 {
        fill: #c69c6d;
        stroke: #603813;
        stroke-miterlimit: 10;
        stroke-width: 1.88px;
      }
    </style>
  </defs>
  <g id="Capa_1-2" data-name="Capa 1">
    <g>
      <path class="cls-1" d="M27.78,22.89c6.98,10.79,13.85,21.43,21.34,33-4.58,0-8.13.37-11.54-.16-1.64-.26-3.47-1.94-4.42-3.47-4.34-6.95-8.4-14.08-13.29-22.38-4.62,3.42-6.69,3.86-8.01,7.94-1.31,4.05-.56,12.9-.56,17.72H.94V2.19h10.13v23.15c2.37-2.13,3.71-3.17,4.85-4.39,3.51-3.75,9.22-8.56,12.34-12.86.37-.51.78-1,1.26-1.42C38.96-1.6,38.94,1.13,47.29,2.44l-19.51,20.44Z"/>
      <path class="cls-1" d="M81.12,20.78c.32-1.54.54-2.63.81-3.91h9.22c0,5.91.1,11.69-.02,17.47-.19,8.82-.25,17.66-.9,26.45-.38,5.17-3.84,9.05-8.89,9.63-6.22.71-12.71.8-18.86-.21-5.19-.85-8.21-4.96-7.84-11.26,3.54-.8,3.84-1.55,8.06,2.59,1.73,1.7,13.19,2.65,15.14.94,2.53-2.22,2.95-6.86,4.76-11.76-2.95,1.78-2.55,1.5-2.95,1.78-11.34,8.04-24.37,2.02-26.2-11.83-.44-3.32-.43-6.82.05-10.13,1.75-12,14.55-20.14,27.63-9.76ZM62.7,32.16c-.28,2.16-.29,5.75,0,7.91.53,3.93,2.61,6.03,7.27,6.85,2.72.48,6.96-.95,8.71-3.03,3.77-4.46,3.62-10.35.83-15.27-1.32-2.33-5-4.85-7.38-4.64-2.7.24-5.12.19-7.17,2.54-.58.67-2.13,4.62-2.26,5.65Z"/>
    </g>
  </g>
</svg>