<?xml version="1.0" encoding="UTF-8"?>
<svg id="Capa_2" data-name="Capa 2" xmlns="http://www.w3.org/2000/svg" viewBox="0 0 104.55 122.41">
  <defs>
    <style>
      .cls-1 {
        stroke-width: 3.14px;
      }

      .cls-1, .cls-2, .cls-3 {
        fill: none;
        stroke: #754c24;
        stroke-miterlimit: 10;
      }

      .cls-2 {
        stroke-width: 4.78px;
      }

      .cls-3 {
        stroke-width: 1.91px;
      }
    </style>
  </defs>
  <g id="Capa_1-2" data-name="Capa 1">
    <g>
      <path class="cls-2" d="M17.96,33.49h66.3s6.06-.42,7.19,8.4c1.13,8.82,10.7,68.14,10.7,68.14,0,0,.96,8.61-13.39,9.57-14.35.96-78.68,0-78.68,0,0,0-9.34-.96-7.43-15.31s7.43-58.99,7.43-58.99c0,0,1.43-11.33,9.31-11.33"/>
      <path class="cls-1" d="M24.36,42.58h53.34s4.88-.34,5.79,6.7c.91,7.04,8.61,54.35,8.61,54.35,0,0,.77,6.87-10.78,7.63-11.55.76-63.3,0-63.3,0,0,0-7.52-.76-5.98-12.21,1.54-11.45,5.98-47.05,5.98-47.05,0,0,1.15-9.04,7.49-9.04"/>
      <circle class="cls-2" cx="53.36" cy="18.18" r="15.79"/>
      <circle class="cls-3" cx="53.36" cy="18.18" r="8.61"/>
    </g>
  </g>
</svg>