<?xml version="1.0" encoding="UTF-8"?>
<svg id="Capa_2" data-name="Capa 2" xmlns="http://www.w3.org/2000/svg" viewBox="0 0 112.22 112.24">
  <defs>
    <style>
      .cls-1 {
        stroke-width: 3.28px;
      }

      .cls-1, .cls-2 {
        fill: none;
        stroke: #603813;
        stroke-linecap: round;
        stroke-linejoin: round;
      }

      .cls-2 {
        stroke-width: 3px;
      }
    </style>
  </defs>
  <g id="Capa_1-2" data-name="Capa 1">
    <path class="cls-2" d="M87.52,41.22c0-12-.8-19.54-.7-22.72.1-3.09.02-6.19.02-9.29"/>
    <path class="cls-2" d="M16.52,21.22c0,4-.32,22.85-.22,27.06.1,4.21.02,8.42.02,12.63v25.49c0,4.21-.02,8.42,0,12.63.03,6.06,2.96,9.87,8.08,11.48.76.24,1.45.18,2.16.18,16.76.02,33.52-.03,50.27.05,4.24.02,10.05-3.9,10.01-10.04-.03-5.24-.3-10.51.09-15.72.27-3.66.32-7.41.17-10.96-.48-10.73.12-21.46-.32-32.17"/>
    <path class="cls-2" d="M16.31,9.2c0,3.49,0,6.99,0,10.48,0,1.24.2,7.53.2,15.53"/>
    <path class="cls-2" d="M86.84,8.96c.4-.16.78-.38,1.19-.47,2.96-.61,4.17-2.44,3.31-5.25-.3-.98-.88-1.79-2.13-1.68-.47.04-.95,0-1.43,0-27.64,0-55.28,0-82.92.02-1.08,0-2.4-.54-3.11.93-.42.88-.37,4.77.26,5.22,1.18.85,2.57,1.61,4.02,1.17,2.93-.88,5.93-.57,8.81-.29,1.59.15,3.03-.2,4.54-.19,21.44.07,42.89.04,64.33.05.98,0,1.99-.16,2.86.47"/>
    <path class="cls-2" d="M87.56,80.92c2.56,0,5.1-.06,7.63-.69,5.25-1.31,9.72-6.43,10.3-12.41.52-5.35,1.58-10.64,2.31-15.97.55-4.04.95-8.1,1.45-12.15.37-3.02.76-6.04,1.2-9.05.29-1.99.81-3.95-1.18-5.51-.85-.66-1.7-.69-2.64-.69-6.27,0-12.55,0-18.82,0"/>
    <path class="cls-2" d="M17.27,39.46h68.62"/>
    <path class="cls-2" d="M87.79,31.36c3.89,0,7.78-.06,11.67.02,2.37.05,3.48.4,3.1,3.31-.8,6.11-1.62,12.23-2.38,18.35-.52,4.2-.88,8.43-1.46,12.62-.56,4.03-3.07,7.82-8.79,8.1-.79.04-1.59,0-2.38,0"/>
    <path class="cls-1" d="M73.97,59.28H28.52"/>
    <path class="cls-1" d="M73.97,75.24H28.52"/>
    <path class="cls-1" d="M73.97,90.69c-10.96.03-12.44-.09-26.99-.23-6.16-.06-12.31-.01-18.47-.01"/>
    <path class="cls-2" d="M5.35,9.44c1.09,3.8,3.77,6.7,5.75,9.99,1.05,1.74,1.77,3.84,4.02,4.54"/>
  </g>
</svg>