<?xml version="1.0" encoding="UTF-8"?>
<svg id="Capa_2" data-name="Capa 2" xmlns="http://www.w3.org/2000/svg" viewBox="0 0 107.37 95.31">
  <defs>
    <style>
      .cls-1 {
        fill: #603813;
        stroke: #fcf7e3;
        stroke-linejoin: round;
        stroke-width: 2px;
      }
    </style>
  </defs>
  <g id="Capa_1-2" data-name="Capa 1">
    <path class="cls-1" d="M10.61,55.34c-3.04-1.82-5.36-3.06-7.5-4.54-2.81-1.94-2.81-4.38.02-6.32,2.15-1.48,4.49-2.69,7.48-4.45-2.74-1.62-4.99-2.83-7.11-4.24-3.26-2.17-3.38-4.92-.03-6.87C19.33,19.65,35.24,10.48,51.26,1.48c1.33-.75,3.87-.59,5.27.2,15.75,8.86,31.41,17.88,47.04,26.97,3.76,2.19,3.64,5.02-.06,7.4-.99.63-2.05,1.16-3.05,1.77-.98.6-1.93,1.25-3.48,2.26,2.23,1.33,4.07,2.42,5.9,3.52,4.61,2.79,4.67,5.24.17,8.01-1.83,1.13-3.69,2.2-6.19,3.69,2.64,1.58,4.64,2.71,6.57,3.95,3.77,2.4,3.95,5.16.18,7.36-15.74,9.18-31.53,18.27-47.41,27.2-1.34.75-3.87.64-5.25-.14-15.75-8.86-31.41-17.9-47.03-26.98-3.85-2.24-3.8-4.96-.08-7.34,1.97-1.26,4.02-2.38,6.79-4.01ZM95.86,32.3c-14.23-8.17-27.44-15.82-40.77-23.26-1.01-.56-3.1.1-4.34.8-11.78,6.66-23.48,13.44-35.19,20.21-1.08.62-2.05,1.42-3.57,2.49,12.04,6.93,23.68,13.22,34.86,20.24,5.06,3.17,8.79,3.07,13.8-.06,11.19-7,22.81-13.3,35.21-20.43ZM12.38,63.14c1.34.9,2.38,1.68,3.49,2.32,11.45,6.61,22.96,13.11,34.33,19.85,2.66,1.58,4.64,1.4,7.18-.1,10.49-6.2,21.1-12.21,31.66-18.3,1.99-1.15,3.96-2.32,6.25-3.67-3.37-3.27-6.04-4.04-9.99-1.55-9.07,5.7-18.56,10.74-27.76,16.24-2.77,1.66-5,1.57-7.72-.05-9.09-5.4-18.41-10.43-27.4-15.99-3.74-2.31-6.65-2.46-10.05,1.24ZM95.26,47.9c-3.31-3.47-6.23-3.89-10.27-1.34-8.83,5.56-18.09,10.4-27.04,15.78-3.04,1.83-5.53,1.86-8.55.05-8.95-5.36-18.17-10.29-27-15.84-4.01-2.52-6.95-2.17-10.21,1.4,13.44,7.76,26.76,15.52,40.2,23.05.99.55,3.06-.16,4.31-.86,7.57-4.23,15.06-8.62,22.56-12.96,5.31-3.07,10.61-6.16,15.99-9.28Z"/>
  </g>
</svg>