<?xml version="1.0" encoding="UTF-8"?>
<svg id="Capa_2" data-name="Capa 2" xmlns="http://www.w3.org/2000/svg" viewBox="0 0 90.32 105.14">
  <defs>
    <style>
      .cls-1 {
        fill: #fcf7e3;
      }

      .cls-1, .cls-2 {
        stroke: #603813;
        stroke-linecap: round;
        stroke-linejoin: round;
        stroke-width: 4.14px;
      }

      .cls-2 {
        fill: none;
      }
    </style>
  </defs>
  <g id="Capa_1-2" data-name="Capa 1">
    <path class="cls-1" d="M48.05,38.08c5.19,0,9.74-.05,14.28.01,7.13.1,9.93,4.85,6.14,10.74-10.83,16.83-21.79,33.57-32.71,50.35-1.84,2.83-4.12,4.96-7.72,3.31-3.63-1.67-4.09-4.84-3.15-8.35,1.99-7.45,4.02-14.88,6.02-22.32.5-1.87.91-3.76,1.55-6.44-5.25,0-9.98.36-14.61-.15-2.47-.27-5.85-1.45-6.86-3.29-1.01-1.84-.38-5.56.92-7.54C22.56,38.25,33.57,22.32,44.43,6.3c1.98-2.93,4.3-5.37,8.07-3.67,3.86,1.74,4.05,5.15,3.01,8.82-2.45,8.65-4.85,17.31-7.46,26.63Z"/>
    <line class="cls-1" x1="28.53" y1="2.07" x2="2.07" y2="41.84"/>
    <path class="cls-2" d="M60.95,84.23c3.49-4.36,18.97-29.53,25.91-41.22,4.52-7.61-2.67-19.63-11.32-17.77-.15.03-5.01,1.24-5.16,1.28"/>
  </g>
</svg>