<?xml version="1.0" encoding="UTF-8"?>
<svg id="Capa_2" data-name="Capa 2" xmlns="http://www.w3.org/2000/svg" viewBox="0 0 111.13 111.67">
  <defs>
    <style>
      .cls-1 {
        fill: none;
        stroke-linecap: round;
        stroke-linejoin: round;
        stroke-width: 1.91px;
      }

      .cls-1, .cls-2 {
        stroke: #603813;
      }

      .cls-2 {
        fill: #c69c6d;
        stroke-miterlimit: 10;
        stroke-width: 2px;
      }
    </style>
  </defs>
  <g id="Capa_1-2" data-name="Capa 1">
    <path class="cls-2" d="M15.97,38.67h71v60.66c0,6.26-5.08,11.34-11.34,11.34H27.56c-6.4,0-11.59-5.19-11.59-11.59v-60.41h0Z"/>
    <g>
      <path class="cls-1" d="M86.97,40.67c0-12-.8-19.54-.7-22.72.1-3.09.02-6.19.02-9.29"/>
      <path class="cls-1" d="M15.97,20.67c0,4-.32,22.85-.22,27.06.1,4.21.02,8.42.02,12.63v25.49c0,4.21-.02,8.42,0,12.63.03,6.06,2.96,9.87,8.08,11.48.76.24,1.45.18,2.16.18,16.76.02,33.52-.03,50.27.05,4.24.02,10.05-3.9,10.01-10.04-.03-5.24-.3-10.51.09-15.72.27-3.66.32-7.41.17-10.96-.48-10.73.12-21.46-.32-32.17"/>
      <path class="cls-1" d="M15.77,8.65c0,3.49,0,6.99,0,10.48,0,1.24.2,7.53.2,15.53"/>
      <path class="cls-1" d="M86.29,8.42c.4-.16.78-.38,1.19-.47,2.96-.61,4.17-2.44,3.31-5.25-.3-.98-.88-1.79-2.13-1.68-.47.04-.95,0-1.43,0-27.64,0-55.28,0-82.92.02-1.08,0-2.4-.54-3.11.93-.42.88-.37,4.77.26,5.22,1.18.85,2.57,1.61,4.02,1.17,2.93-.88,5.93-.57,8.81-.29,1.59.15,3.03-.2,4.54-.19,21.44.07,42.89.04,64.33.05.98,0,1.99-.16,2.86.47"/>
      <path class="cls-1" d="M87.01,80.37c2.56,0,5.1-.06,7.63-.69,5.25-1.31,9.72-6.43,10.3-12.41.52-5.35,1.58-10.64,2.31-15.97.55-4.04.95-8.1,1.45-12.15.37-3.02.76-6.04,1.2-9.05.29-1.99.81-3.95-1.18-5.51-.85-.66-1.7-.69-2.64-.69-6.27,0-12.55,0-18.82,0"/>
      <path class="cls-1" d="M16.72,38.91h68.62"/>
      <path class="cls-1" d="M87.25,30.81c3.89,0,7.78-.06,11.67.02,2.37.05,3.48.4,3.1,3.31-.8,6.11-1.62,12.23-2.38,18.35-.52,4.2-.88,8.43-1.46,12.62-.56,4.03-3.07,7.82-8.79,8.1-.79.04-1.59,0-2.38,0"/>
      <path class="cls-1" d="M26.37,46.3c.04,5.08.11,10.17.11,15.25.02,11.6,0,23.19,0,34.79v5.48"/>
      <path class="cls-1" d="M73.43,47.73h-38.12"/>
      <path class="cls-1" d="M73.43,58.21h-38.12"/>
      <path class="cls-1" d="M73.43,68.7h-38.12"/>
      <path class="cls-1" d="M73.43,90.14c-7.54-.51-15.09-.14-22.64-.23-5.16-.06-10.32-.01-15.49-.01"/>
      <path class="cls-1" d="M73.43,100.62h-38.12"/>
      <path class="cls-1" d="M72.71,79.42h-37.41"/>
      <path class="cls-1" d="M4.81,8.89c1.09,3.8,3.77,6.7,5.75,9.99,1.05,1.74,1.77,3.84,4.02,4.54"/>
      <path class="cls-1" d="M30.3,50.83c-4.33-9.16-3.33-8.16-7.15-.48-.04.08-.16.08-.24.12.04.04.08.08.12.12"/>
    </g>
  </g>
</svg>