<?xml version="1.0" encoding="UTF-8"?>
<svg id="Capa_2" data-name="Capa 2" xmlns="http://www.w3.org/2000/svg" viewBox="0 0 94.61 94.61">
  <defs>
    <style>
      .cls-1 {
        fill: #754c24;
        stroke-width: 0px;
      }
    </style>
  </defs>
  <g id="Capa_1-2" data-name="Capa 1">
    <path class="cls-1" d="M92.33,11.74l-9.48-9.48c-1.45-1.45-3.39-2.27-5.46-2.27H17.21c-2.07,0-4,.8-5.46,2.27L2.27,11.74c-1.45,1.45-2.27,3.39-2.27,5.46v60.2c0,2.07.8,4,2.27,5.46l9.48,9.48c1.45,1.45,3.39,2.27,5.46,2.27h60.2c2.07,0,4-.8,5.46-2.27l9.48-9.48c1.45-1.45,2.27-3.39,2.27-5.46V17.21c0-2.07-.8-4-2.27-5.46h-.02ZM91.33,77.39c0,1.19-.46,2.32-1.3,3.15l-9.48,9.48c-.85.85-1.96,1.3-3.15,1.3H17.21c-1.19,0-2.32-.46-3.15-1.3l-9.48-9.48c-.85-.85-1.3-1.96-1.3-3.15V17.21c0-1.19.46-2.32,1.3-3.15L14.06,4.58c.85-.85,1.96-1.3,3.15-1.3h60.2c1.19,0,2.32.46,3.15,1.3l9.48,9.48c.85.85,1.3,1.96,1.3,3.15v60.2-.02ZM77.86,8.22c-.31-.31-.72-.47-1.16-.47H17.89c-.44,0-.85.18-1.16.47l-8.51,8.51c-.31.31-.47.72-.47,1.16v58.83c0,.44.18.85.47,1.16l8.51,8.51c.31.31.72.47,1.16.47h58.83c.44,0,.85-.18,1.16-.47l8.51-8.51c.31-.31.47-.72.47-1.16V17.89c0-.44-.18-.85-.47-1.16l-8.51-8.51h-.02ZM83.58,76.03l-7.55,7.55H18.56l-7.55-7.55V18.56l7.55-7.55h57.47l7.55,7.55s0,57.47,0,57.47ZM66.35,17.73c-2.82,2.82-2.82,7.4,0,10.21,1.4,1.4,3.26,2.12,5.1,2.12s3.7-.7,5.1-2.12c2.82-2.82,2.82-7.4,0-10.21-2.82-2.82-7.4-2.82-10.21,0ZM68.65,25.64c-1.13-1.13-1.42-2.79-.9-4.19l5.09,5.09c-1.4.52-3.07.23-4.19-.9ZM75.15,24.22l-5.09-5.09c.46-.16.91-.26,1.39-.26,1.01,0,2.02.39,2.81,1.16,1.13,1.13,1.42,2.79.9,4.19ZM23.14,15.61c-1.92,0-3.75.75-5.1,2.12-2.82,2.82-2.82,7.4,0,10.21,1.37,1.37,3.18,2.12,5.1,2.12s3.75-.75,5.1-2.12c2.82-2.82,2.82-7.4,0-10.21-1.37-1.37-3.18-2.12-5.1-2.12ZM25.95,20.03c1.13,1.13,1.42,2.79.9,4.19l-5.09-5.09c.44-.16.91-.26,1.39-.26,1.06,0,2.05.41,2.81,1.16ZM20.34,25.64c-1.13-1.13-1.42-2.79-.9-4.19l5.07,5.07c-1.4.49-3.08.21-4.18-.88ZM66.35,66.66c-2.82,2.82-2.82,7.4,0,10.21,1.4,1.4,3.26,2.12,5.1,2.12s3.7-.7,5.1-2.12c2.82-2.82,2.82-7.4,0-10.21-2.82-2.82-7.4-2.82-10.21,0ZM74.26,68.96c1.13,1.13,1.42,2.79.9,4.19l-5.09-5.09c.46-.16.91-.26,1.39-.26,1.01,0,2.02.39,2.81,1.16ZM68.65,74.57c-1.13-1.13-1.42-2.79-.9-4.19l5.09,5.09c-1.4.52-3.07.23-4.19-.9ZM23.14,64.54c-1.92,0-3.75.75-5.1,2.12-2.82,2.82-2.82,7.4,0,10.21,1.37,1.37,3.18,2.12,5.1,2.12s3.75-.75,5.1-2.12c2.82-2.82,2.82-7.4,0-10.21-1.37-1.37-3.18-2.12-5.1-2.12ZM25.95,68.96c1.13,1.13,1.42,2.79.9,4.19l-5.09-5.09c.44-.16.91-.26,1.39-.26,1.06,0,2.05.41,2.81,1.16ZM20.34,74.57c-1.13-1.13-1.42-2.79-.9-4.19l5.07,5.07c-1.4.49-3.08.21-4.18-.88Z"/>
  </g>
</svg>