<?xml version="1.0" encoding="UTF-8"?>
<svg id="Capa_2" data-name="Capa 2" xmlns="http://www.w3.org/2000/svg" xmlns:xlink="http://www.w3.org/1999/xlink" viewBox="0 0 216.31 98.74">
  <defs>
    <style>
      .cls-1 {
        fill: #c69c6d;
        stroke-width: 0px;
      }
    </style>
    <symbol id="a" viewBox="0 0 161.09 73.53">
      <g>
        <g>
          <path class="cls-1" d="M34.21,14.67V3.49h-1.15l.06,1.02h-.03c-.36-.75-1.2-1.13-2.52-1.13-1.2,0-2.02.29-2.46.88-.44.58-.66,1.67-.66,3.27,0,1.47.22,2.49.66,3.06s1.24.86,2.38.86c1.43,0,2.28-.37,2.55-1.11l.03.02v4.33h1.15v-.02ZM30.76,10.48c-.85,0-1.41-.2-1.69-.59s-.42-1.18-.42-2.37c0-1.31.14-2.17.41-2.58.28-.41.85-.62,1.72-.62.95,0,1.56.21,1.84.62s.43,1.31.43,2.69c0,1.12-.16,1.87-.47,2.26-.32.39-.92.59-1.82.59Z"/>
          <path class="cls-1" d="M42.32,5.85h1.17v-.29c0-.81-.24-1.38-.73-1.71-.49-.33-1.36-.49-2.6-.49-1.44,0-2.39.26-2.84.79s-.68,1.63-.68,3.32c0,1.56.23,2.61.68,3.15s1.34.8,2.66.8c1.44,0,2.39-.23,2.83-.7.45-.46.67-1.44.67-2.93v-.61h-5.64c0-1.23.13-2.02.4-2.36.26-.34.88-.51,1.85-.51s1.52.08,1.8.24c.28.16.41.51.41,1.04v.25h.02ZM42.32,8.08v.37c0,.85-.15,1.4-.43,1.65s-.88.38-1.8.38-1.53-.15-1.8-.45c-.28-.3-.41-.95-.41-1.95h4.45-.01Z"/>
          <path class="cls-1" d="M52.03,9.27h-1.15c0,.55-.11.89-.33,1.02s-.79.2-1.71.2c-.85,0-1.39-.07-1.62-.21s-.35-.47-.35-1c0-.8.39-1.22,1.16-1.26l.93-.05,1.17-.06c1.42-.07,2.13-.81,2.13-2.23,0-.88-.24-1.48-.7-1.81-.47-.33-1.33-.49-2.58-.49s-2.17.16-2.65.47c-.48.31-.73.88-.73,1.71v.43h1.2v-.37c0-.51.14-.86.4-1.03.26-.17.78-.26,1.55-.26.95,0,1.57.09,1.87.27s.44.56.44,1.13c0,.82-.37,1.24-1.12,1.24-1.74,0-2.89.15-3.44.44-.55.3-.82.91-.82,1.83s.22,1.47.65,1.76c.43.29,1.3.44,2.59.44,2.07,0,3.11-.63,3.11-1.88,0,0,0-.29,0-.29Z"/>
          <path class="cls-1" d="M55.72,14.67v-1.29h-1.15v1.29h1.15ZM55.72,11.32V3.49h-1.15v7.83h1.15Z"/>
          <path class="cls-1" d="M64.95,11.32V2.98c0-1.14-.25-1.92-.74-2.34-.49-.43-1.39-.64-2.7-.64-1.17,0-1.97.18-2.39.54-.43.36-.64,1.03-.64,2.02h1.11c0-.67.13-1.11.37-1.31.25-.2.79-.3,1.63-.3s1.46.13,1.76.39.45.78.45,1.54v1.57h-.02c-.3-.72-1.15-1.08-2.56-1.08-1.16,0-1.96.28-2.39.86-.44.57-.66,1.61-.66,3.13s.22,2.64.67,3.22c.44.58,1.27.86,2.48.86,1.28,0,2.12-.39,2.52-1.18h.03l-.06,1.07h1.15,0ZM61.53,10.48c-.9,0-1.49-.19-1.75-.57-.27-.38-.4-1.21-.4-2.49s.13-2.13.4-2.52c.27-.38.85-.58,1.75-.58s1.51.21,1.8.63.43,1.3.43,2.64c0,1.18-.14,1.95-.43,2.33-.29.37-.89.56-1.8.56Z"/>
          <path class="cls-1" d="M67.62,11.32h1.11l-.03-1.07.03-.02c.35.8,1.22,1.2,2.61,1.2,1.12,0,1.88-.2,2.27-.59.4-.39.6-1.15.6-2.26V3.48h-1.15v5.29c0,.67-.13,1.12-.38,1.36-.26.23-.75.35-1.48.35-1.61,0-2.42-.76-2.42-2.29V3.48h-1.15v7.83h0Z"/>
          <path class="cls-1" d="M82.38,5.85h1.17v-.29c0-.81-.24-1.38-.73-1.71-.49-.33-1.36-.49-2.6-.49-1.44,0-2.39.26-2.84.79s-.68,1.63-.68,3.32c0,1.56.23,2.61.68,3.15s1.34.8,2.66.8c1.44,0,2.39-.23,2.83-.7.45-.46.67-1.44.67-2.93v-.61h-5.64c0-1.23.13-2.02.4-2.36.26-.34.88-.51,1.85-.51s1.52.08,1.8.24c.28.16.41.51.41,1.04v.25h.02ZM82.38,8.08v.37c0,.85-.15,1.4-.43,1.65s-.88.38-1.8.38-1.53-.15-1.8-.45c-.28-.3-.41-.95-.41-1.95h4.45,0Z"/>
          <path class="cls-1" d="M92.57,14.67V3.49h-1.15l.06,1.02h-.03c-.36-.75-1.2-1.13-2.52-1.13-1.2,0-2.02.29-2.46.88-.44.58-.66,1.67-.66,3.27,0,1.47.22,2.49.66,3.06s1.23.86,2.37.86c1.43,0,2.28-.37,2.55-1.11l.03.02v4.33h1.15v-.02ZM89.12,10.48c-.85,0-1.41-.2-1.69-.59s-.42-1.18-.42-2.37c0-1.31.14-2.17.41-2.58.28-.41.85-.62,1.72-.62.95,0,1.56.21,1.84.62s.43,1.31.43,2.69c0,1.12-.16,1.87-.47,2.26-.32.39-.92.59-1.82.59Z"/>
          <path class="cls-1" d="M100.39,3.48v6.88h-1.2v.95h1.2v1.16c0,1.53.79,2.3,2.37,2.3.24,0,.51-.02.83-.06v-.95c-.37.04-.64.06-.81.06-.82,0-1.24-.42-1.24-1.25v-1.27h2.05v-.95h-2.05V3.47h-1.15Z"/>
          <path class="cls-1" d="M108.42,11.43c1.45,0,2.39-.25,2.82-.75s.65-1.59.65-3.28-.21-2.77-.65-3.28c-.43-.5-1.37-.75-2.82-.75s-2.38.25-2.81.75-.65,1.59-.65,3.28.22,2.77.65,3.28c.43.5,1.37.75,2.81.75ZM108.42,10.48c-1.02,0-1.65-.17-1.89-.5s-.36-1.19-.36-2.58.12-2.25.36-2.58.87-.5,1.89-.5,1.65.16,1.9.5c.24.33.36,1.19.36,2.58s-.12,2.25-.36,2.58-.87.5-1.9.5Z"/>
          <path class="cls-1" d="M114.46,11.32h1.15l-.11-.9.02-.02c.45.74,1.2,1.11,2.25,1.11,1.44,0,2.16-.74,2.16-2.23v-.54h-1.14l.02.2c.02.21.03.35.03.42,0,.8-.44,1.2-1.31,1.2-1.28,0-1.92-.79-1.92-2.37V3.5h-1.15v7.83h0Z"/>
          <path class="cls-1" d="M127.68,14.67V3.49h-1.15v11.18h1.15Z"/>
          <path class="cls-1" d="M131.49,14.67v-1.29h-1.15v1.29h1.15ZM131.49,11.32V3.49h-1.15v7.83h1.15Z"/>
          <path class="cls-1" d="M134.47,3.48v6.88h-1.2v.95h1.2v1.16c0,1.53.79,2.3,2.37,2.3.24,0,.51-.02.83-.06v-.95c-.37.04-.64.06-.81.06-.82,0-1.24-.42-1.24-1.25v-1.27h2.05v-.95h-2.05V3.47h-1.15Z"/>
          <path class="cls-1" d="M144.72,5.85h1.17v-.29c0-.81-.24-1.38-.73-1.71-.49-.33-1.36-.49-2.6-.49-1.44,0-2.39.26-2.84.79s-.68,1.63-.68,3.32c0,1.56.23,2.61.68,3.15s1.34.8,2.66.8c1.44,0,2.39-.23,2.83-.7.45-.46.67-1.44.67-2.93v-.61h-5.64c0-1.23.13-2.02.4-2.36.26-.34.88-.51,1.85-.51s1.52.08,1.8.24c.28.16.41.51.41,1.04v.25h.02ZM144.72,8.08v.37c0,.85-.15,1.4-.43,1.65s-.88.38-1.8.38-1.53-.15-1.81-.45-.41-.95-.41-1.95c0,0,4.45,0,4.45,0Z"/>
        </g>
        <g>
          <path class="cls-1" d="M53.18,50.21c-.3,1.64-.42,2.67-2.18,3.52h11.46c-1.09-.42-1.58-1.03-1.58-1.94,0-.24.06-.48.12-.91l3.46-20.07,8.61,22.92h5.15l8.06-23.28,3.52,20.43c.06.49.12.73.12.91,0,.91-.49,1.52-1.58,1.94h8.91c-1.7-.85-1.88-1.88-2.18-3.52l-5.52-28.92h-7.21l-7.7,22.37-8.37-22.37h-7.4l-5.7,28.92h0Z"/>
          <path class="cls-1" d="M107.38,20.74c-6.43,0-10.91,4.61-10.91,9.52,0,3.94,2.3,6.91,6.49,8.43,3.46,1.21,8.61,2.3,15.1,4.79v.3c0,3.82-2.12,5.46-6.85,5.46-5.4,0-8.91-1.46-11.52-5.21v7.46c2.91,1.94,7.58,3.15,13.34,3.15,10.43,0,12.73-4.3,12.79-14.43l.06-9.22c0-3.7.12-6.67,1.7-9.4h-7.4c-.91,1.27-1.27,3.21-1.39,5.88-1.39-3.94-6.12-6.73-11.4-6.73h0ZM104.47,31.11c0-2.61,2.36-4.79,5.58-4.79,4.12,0,8.06,4.49,8.06,11.7v.97c-9.03-3.15-13.64-3.76-13.64-7.88Z"/>
          <path class="cls-1" d="M132.12,25.17v24.97c0,1.82-.12,2.85-2.18,3.58h10.12l-.36-6.85c3.09,5.21,6.49,7.7,10.97,7.7,2.18,0,4.43-.97,6-2.73,2.12-2.36,2.24-4.97,2.24-8.31v-18.37c0-1.88.12-2.79,2.18-3.58h-12.25c2.06.79,2.18,1.7,2.18,3.58v17.22c0,3.94-.91,5.94-3.46,5.94-2.36,0-5.27-2.24-7.64-6.73v-16.43c0-1.88.12-2.79,2.18-3.58h-12.19c2.06.79,2.18,1.82,2.18,3.58h.03Z"/>
        </g>
        <g>
          <path class="cls-1" d="M1.93,58.96c.47-1.07,4.59-4.93,6.06-5.8,1.75-1.04,6.95-3.3,12.86-4.73,6.76-1.63,14.38-2.99,16.99-5.6,2.27-2.27,1.75-5.45.2-7.2-.2,1.46-1.3,3.03-3.93,3.93-3.13,1.06-16.99,3.13-22.92,5.73C1.93,49.37,2.26,54.8,1.93,58.96"/>
          <path class="cls-1" d="M0,50.77c.78-1.48,3.84-5.48,8.93-8.07,4.99-2.53,13.67-3.96,17.19-4.53,3.33-.53,7.2-1,8.33-2.2,2.06-2.2.2-3.26-.73-4.6,0,.53-.67,1.01-1.74,1-5.79-.07-17.02.87-23.45,4.67C3.5,40,.29,44.81,0,50.77"/>
          <path class="cls-1" d="M5.73,36.84c2.6-3.8,12.79-10.33,22.72-9.8,5.81.31,11.7,3.95,13.32,7.99,1.51,3.77,1.01,8.29-2.86,11.13-5.46,4-17.52,3.4-24.12,8.99-5.45,4.62-3.62,11.3-1.13,13.86,3.88,4,10.25,5.15,15.93,4.21,4-.67,7.99-2.73,9.06-3.2s1.82-.75,2.36-2c.53-1.24,1.2-2.98,1.55-3.42.36-.45.44-.93-.04-1.07-.49-.13-1.07.13-1.16.31s-.76.71-1.11.36c-.36-.36-.36-.89-.13-1.42.22-.53.71-1.38.45-2.13-.27-.76-.58-.8-1.38-.53s-1.91,1.38-2.36,2.31c-.44.93-4.22,5.02-7.73,5.78-3.98.86-8.49-.06-10.26-1.51-1.47-1.2-2.59-3.75-.89-6.17.85-1.2,2.18-2.22,6.31-3.07,6.38-1.3,14.77-2.07,20.25-5.91,5.99-4.19,6.74-11.54,4.71-17.94-3.67-11.59-18.84-13.66-26.7-12.13-15.27,2.98-16.83,13.71-16.79,15.37"/>
          <path class="cls-1" d="M42.48,59.79c.56.27,1.13-.03,1.3-.43.17-.4.9-1.73,1.33-2.13s1.9-1.57,2.2-1.86c.3-.3,1.13-.73,1.33-1.07-.1-.3-3.57.6-4.8,1.87s-1.6,1.83-1.7,2.2c-.1.37-.33.87.33,1.43"/>
        </g>
      </g>
    </symbol>
  </defs>
  <g id="Capa_1-2" data-name="Capa 1">
    <use width="161.09" height="73.53" transform="translate(0 98.74) scale(1.34 -1.34)" xlink:href="#a"/>
  </g>
</svg>